<?xml version="1.0" encoding="UTF-8"?>
<svg width="1167px" height="787px" viewBox="0 0 1167 787" version="1.1" xmlns="http://www.w3.org/2000/svg" xmlns:xlink="http://www.w3.org/1999/xlink">
    <!-- Generator: Sketch 47 (45396) - http://www.bohemiancoding.com/sketch -->
    <title>ehtereum-background</title>
    <desc>Created with Sketch.</desc>
    <defs></defs>
    <g id="Page-1" stroke="none" stroke-width="1" fill="none" fill-rule="evenodd">
        <g id="Section-__-Ethereum" transform="translate(-1655.000000, -820.000000)" fill="#7249F7">
            <path d="M2064.05184,841.844572 L2594.59278,841.844572 L2594.59278,841.844572 C2710.57258,841.844572 2804.59278,935.864774 2804.59278,1051.84457 C2804.59278,1054.46113 2804.54388,1057.07746 2804.4461,1059.69219 L2798.70231,1213.28698 L2798.70231,1213.28698 C2790.94832,1420.63677 2620.60465,1584.72939 2413.10992,1584.72939 L1882.56898,1584.72939 L1882.56898,1584.72939 C1766.58919,1584.72939 1672.56898,1490.70918 1672.56898,1374.72939 C1672.56898,1372.11283 1672.61789,1369.4965 1672.71567,1366.88177 L1678.45945,1213.28698 L1678.45945,1213.28698 C1686.21345,1005.93719 1856.55712,841.844572 2064.05184,841.844572 Z" id="ehtereum-background" transform="translate(2238.580883, 1213.286979) scale(-1, 1) rotate(-353.000000) translate(-2238.580883, -1213.286979) "></path>
        </g>
    </g>
</svg>