<svg xmlns="http://www.w3.org/2000/svg" width="24" height="22" viewBox="0 0 24 22">
    <g fill="none" fill-rule="evenodd">
        <path d="M0-2h24v24H0z"/>
        <g fill="#7249F7" fill-rule="nonzero">
            <path d="M23 8h-9a1 1 0 0 0-1 1v12a1 1 0 0 0 1 1h9a1 1 0 0 0 1-1V9a1 1 0 0 0-1-1zm-8 6h1v2h-1v-2zm3 2v-2h4v2h-4zm4-4h-2v-2h2v2zm-7-2h3v2h-3v-2zm0 8h3v2h-3v-2zm7 2h-2v-2h2v2zM12 4h-1V1a1 1 0 0 0-1-1H1a1 1 0 0 0-1 1v4a1 1 0 0 0 1 1h1v2a1 1 0 0 0-1 1v3a1 1 0 0 0-1 1v4a1 1 0 0 0 1 1v3a1 1 0 0 0 1 1h9a1 1 0 0 0 1-1v-4a1 1 0 0 0-1-1v-2a1 1 0 0 0 1-1v-3a1 1 0 0 0 1-1V5a1 1 0 0 0-1-1zm-1 2v2H9V6h2zM9 4H6V2h3v2zM2 2h2v2H2V2zm2 4h3v2H4V6zm-1 4h2v2H3v-2zm-1 6v-2h2v2H2zm1 2h2v2H3v-2zm7 2H7v-2h3v2zm-1-4H6v-2h3v2zm1-4H7v-2h3v2z"/>
        </g>
    </g>
</svg>
