<svg xmlns="http://www.w3.org/2000/svg" width="24" height="12" viewBox="0 0 24 12">
    <g fill="none" fill-rule="evenodd">
        <path d="M0-6h24v24H0z"/>
        <g fill="#7249F7" fill-rule="nonzero">
            <path d="M10.666 8.668h2V7.335h-2A.668.668 0 0 1 10 6.668h2V5.335h-2c0-.368.299-.667.666-.667h2V3.335h-2c-1.103 0-2 .896-2 2v1.333c0 1.103.897 2 2 2zM5.333 6.203l1.445 2.168A.668.668 0 0 0 8 8V3.335H6.666v2.466L5.221 3.633a.664.664 0 0 0-.748-.27.665.665 0 0 0-.474.637v4.668h1.334V6.203zM14.652 8.668h1.362L16 8.615l.656-2.603.653 2.656h1.371l-.014-.053L20 3.335h-1.372l-.638 2.601-.657-2.601H15.961l-.638 2.601-.657-2.601h-1.333l1.309 5.333z"/>
            <path d="M22 0H2C.896 0 0 .898 0 2v8c0 1.103.896 2 2 2h20c1.104 0 2-.897 2-2V2c0-1.102-.896-2-2-2zm-.003 10H2V2h20l-.003 8z"/>
        </g>
    </g>
</svg>
