<svg xmlns="http://www.w3.org/2000/svg" width="20" height="20" viewBox="0 0 20 20">
    <g fill="none" fill-rule="evenodd">
        <path d="M-2-2h24v24H-2z"/>
        <path fill="#7249F7" fill-rule="nonzero" d="M18 12c-.295 0-.572.067-.824.182l-1.615-1.153A4.972 4.972 0 0 0 16 9a4.964 4.964 0 0 0-.833-2.753l2.321-2.321c.164.043.334.074.512.074a2 2 0 1 0-2-2c0 .178.031.348.074.512l-2.321 2.321A4.964 4.964 0 0 0 11 4c-1.515 0-2.857.691-3.775 1.759L3.996 3.965A1.998 1.998 0 0 0 0 4a2 2 0 0 0 2 2c.375 0 .721-.109 1.021-.289l3.231 1.796C6.104 7.981 6 8.477 6 9c0 1.018.309 1.963.833 2.753l-4.321 4.321A2.01 2.01 0 0 0 2 16a2 2 0 1 0 2 2 2.01 2.01 0 0 0-.074-.512l4.321-4.321a4.923 4.923 0 0 0 1.753.731v2.379A1.99 1.99 0 0 0 9 18a2 2 0 1 0 4 0c0-.737-.404-1.375-1-1.723v-2.379a4.97 4.97 0 0 0 2.391-1.247l1.628 1.163c-.006.062-.019.122-.019.186a2 2 0 1 0 2-2zm-7 0c-1.654 0-3-1.346-3-3s1.346-3 3-3 3 1.346 3 3-1.346 3-3 3z"/>
    </g>
</svg>
